<svg width="6" height="7" viewBox="0 0 6 7" fill="none" xmlns="http://www.w3.org/2000/svg">
<path d="M0.727397 0.888009L2.7274 2.88801L4.7274 0.894069C4.76677 0.854002 4.81404 0.822542 4.8662 0.801678C4.91836 0.780814 4.97428 0.771 5.03043 0.772857C5.1406 0.779987 5.24442 0.826973 5.32248 0.905042C5.40055 0.98311 5.44754 1.08692 5.45467 1.1971C5.45522 1.25127 5.44476 1.30499 5.42392 1.35499C5.40308 1.405 5.37231 1.45025 5.33346 1.48801L3.3274 3.50013L5.33346 5.51225C5.41225 5.58861 5.45588 5.69407 5.45467 5.80316C5.44754 5.91334 5.40055 6.01715 5.32248 6.09522C5.24442 6.17329 5.1406 6.22027 5.03043 6.2274C4.97428 6.22926 4.91836 6.21945 4.8662 6.19858C4.81404 6.17772 4.76677 6.14626 4.7274 6.10619L2.7274 4.11225L0.733457 6.10619C0.69408 6.14626 0.646816 6.17772 0.594656 6.19858C0.542496 6.21945 0.486574 6.22926 0.430427 6.2274C0.318197 6.22156 0.212109 6.17435 0.132643 6.09488C0.0531765 6.01542 0.00596584 5.90933 0.000124047 5.7971C-0.000424318 5.74293 0.0100368 5.68921 0.0308728 5.6392C0.0517088 5.5892 0.0824855 5.54395 0.121336 5.50619L2.1274 3.50013L0.115276 1.48801C0.0775189 1.44974 0.0478622 1.40426 0.0280774 1.35428C0.00829255 1.3043 -0.00121458 1.25084 0.000124047 1.1971C0.00725396 1.08692 0.0542399 0.98311 0.132308 0.905042C0.210377 0.826973 0.314191 0.779987 0.424366 0.772857C0.480077 0.770211 0.535735 0.77907 0.587871 0.798882C0.640007 0.818693 0.687503 0.849033 0.727397 0.888009Z" fill="#C65252"/>
</svg>
